<svg xmlns="http://www.w3.org/2000/svg" viewBox="0 0 356.501 349.713"><g fill="#fc7300"><path d="m197.397 127.88-52.163 12.08-7.293 16.579 52.1-12.054Z" data-name="Path 75"/><path d="m131.256 171.779-20.343 46.3-26.157 62.367 18.572 64.7 12.67-30.206 67.43-155.229Z" data-name="Path 76"/><path d="m127.961 143.921-52.5 12.146-25.878 57.645-4.027-14.008-9.994-34.8-.118.039-8.63-30.062-26.809 61 18.782 65.436 4.394 15.307-.079.2 18.835 65.581 26.383-62.911 59.613-135.529Z" data-name="Path 77"/><path d="M223.131.248a141.654 141.654 0 0 0-147.989 117.9l57.606-13.339a89.95 89.95 0 1 1 82.3 126.78l52.045-119.776-52.041 12.035-42.772 97.322-26.39 62.957 18.822 65.581 28.646-68.073a143.67 143.67 0 0 0 13.195 1.4A141.648 141.648 0 1 0 223.133.225Z" data-name="Path 78"/></g></svg>