<?xml version="1.0" standalone="no"?>
<!DOCTYPE svg PUBLIC "-//W3C//DTD SVG 20010904//EN"
 "http://www.w3.org/TR/2001/REC-SVG-20010904/DTD/svg10.dtd">
<svg version="1.0" xmlns="http://www.w3.org/2000/svg"
 width="714.000000pt" height="714.000000pt" viewBox="0 0 714.000000 714.000000"
 preserveAspectRatio="xMidYMid meet">
<metadata>
Created by potrace 1.14, written by Peter Selinger 2001-2017
</metadata>
<g transform="translate(0.000000,714.000000) scale(0.100000,-0.100000)"
fill="#000000" stroke="none">
<path d="M4088 7064 c-3 -2 -31 -6 -64 -9 -32 -3 -79 -8 -104 -12 -25 -3 -54
-7 -65 -8 -31 -4 -82 -14 -175 -36 -47 -11 -96 -22 -109 -25 -45 -9 -217 -66
-306 -101 -220 -86 -505 -244 -650 -359 -16 -13 -35 -28 -40 -32 -82 -59 -167
-134 -280 -248 -117 -117 -139 -142 -223 -249 -34 -44 -68 -87 -75 -95 -12
-15 -94 -140 -112 -171 -98 -169 -177 -329 -219 -439 -15 -41 -32 -84 -36 -95
-10 -21 -68 -208 -75 -241 -33 -150 -47 -225 -43 -230 6 -5 112 17 383 81 61
14 121 28 135 31 14 3 52 12 85 21 33 8 74 17 90 20 17 2 64 13 105 23 41 11
86 22 100 24 14 3 66 15 115 27 50 11 98 22 109 25 23 4 16 -6 62 84 45 88
123 214 135 218 5 2 9 8 9 14 0 16 108 144 191 227 59 59 139 131 145 131 3 0
12 7 21 16 46 46 327 214 383 229 3 1 16 6 30 12 14 6 54 20 90 33 36 12 74
26 85 30 18 8 96 26 195 46 19 4 51 9 70 10 19 1 35 3 35 4 0 10 340 16 405 7
225 -32 392 -76 503 -134 15 -8 27 -11 27 -8 0 3 48 -19 107 -50 292 -155 516
-359 692 -630 49 -76 151 -273 151 -293 0 -5 7 -23 16 -40 28 -56 78 -239 90
-328 3 -27 8 -52 10 -55 5 -9 18 -207 17 -274 -1 -66 -11 -197 -18 -235 -3
-14 -8 -45 -11 -70 -3 -25 -8 -48 -10 -51 -2 -3 -6 -21 -9 -40 -11 -64 -86
-273 -132 -368 -42 -86 -118 -218 -133 -231 -3 -3 -16 -22 -29 -42 -12 -21
-26 -38 -31 -38 -5 0 -11 -9 -15 -20 -9 -27 -226 -245 -300 -301 -312 -237
-682 -373 -1037 -383 -59 -2 -68 0 -62 13 4 9 9 26 11 38 3 13 9 23 14 23 4 0
11 16 15 35 3 19 10 35 15 35 5 0 9 7 9 15 0 8 14 45 31 82 30 66 135 306 313
718 48 110 91 209 96 220 12 25 73 166 152 350 33 77 71 163 83 190 13 28 51
115 85 195 34 80 70 164 81 188 67 148 128 292 124 292 -2 0 -34 -7 -72 -16
-37 -9 -75 -17 -83 -19 -8 -2 -54 -12 -102 -24 -48 -11 -98 -23 -110 -25 -13
-3 -33 -7 -45 -10 -13 -4 -33 -8 -45 -11 -13 -3 -50 -11 -83 -19 -33 -9 -71
-17 -85 -20 -41 -8 -71 -15 -88 -20 -9 -3 -28 -7 -42 -10 -69 -12 -266 -61
-276 -68 -10 -7 -75 -149 -196 -428 -11 -25 -28 -63 -38 -85 -10 -22 -32 -74
-50 -115 -18 -41 -47 -108 -66 -148 -19 -41 -34 -76 -34 -78 0 -3 -103 -237
-154 -349 -12 -27 -45 -102 -71 -165 -27 -63 -54 -118 -60 -122 -5 -4 -7 -8
-3 -8 6 0 -5 -27 -78 -188 -13 -29 -24 -55 -24 -57 0 -2 -13 -32 -29 -67 -40
-85 -94 -211 -148 -343 -25 -60 -54 -130 -65 -155 -12 -25 -21 -51 -21 -57 0
-7 -4 -13 -9 -13 -4 0 -8 -4 -8 -10 0 -5 -30 -80 -66 -167 -37 -87 -76 -183
-89 -213 -33 -82 -133 -321 -166 -396 -17 -39 -17 -43 1 -107 10 -37 21 -70
24 -75 3 -5 7 -19 10 -33 6 -28 51 -191 95 -339 17 -58 33 -114 36 -124 2 -11
11 -40 19 -65 7 -25 21 -75 31 -111 9 -36 21 -76 26 -90 4 -14 31 -106 59
-205 29 -99 54 -184 57 -189 3 -5 17 18 30 50 47 113 125 299 139 329 7 17 22
53 33 81 18 48 44 107 76 179 11 25 68 160 100 240 5 11 7 23 7 27 -1 5 3 8 8
8 6 0 10 6 10 13 0 6 38 102 85 212 l84 200 48 0 c26 0 52 -2 58 -4 14 -7 34
-9 195 -16 79 -3 147 -7 150 -7 3 0 7 0 10 1 3 1 57 4 120 6 117 5 163 9 235
20 125 18 180 28 275 52 58 14 112 27 120 28 8 2 16 4 18 5 1 2 7 4 12 5 6 1
12 4 15 5 3 1 8 3 13 4 26 6 159 51 167 56 6 4 33 15 60 25 113 41 452 216
475 246 3 3 16 12 30 19 35 18 179 124 258 190 113 94 294 280 384 395 48 61
93 117 100 125 16 18 107 160 139 215 52 92 109 196 109 199 0 2 16 38 35 79
19 41 35 77 35 80 0 2 8 22 17 43 9 22 18 44 19 49 3 10 51 155 62 185 3 8 6
20 7 25 2 6 10 37 19 70 18 70 45 194 52 245 3 19 7 46 10 60 26 156 27 675 0
805 -2 11 -7 40 -10 65 -4 25 -12 66 -17 91 -6 26 -12 55 -14 65 -2 11 -4 19
-5 19 -1 0 -3 9 -5 20 -4 22 -5 27 -34 135 -12 41 -26 83 -31 92 -6 10 -10 24
-10 31 0 19 -90 238 -139 337 -56 112 -94 179 -153 269 -26 41 -48 77 -48 82
0 4 -3 9 -7 11 -5 2 -35 39 -67 83 -81 110 -154 193 -266 305 -100 100 -198
190 -206 190 -2 0 -30 21 -62 46 -105 84 -176 134 -191 134 -6 0 -11 5 -11 10
0 6 -7 10 -15 10 -8 0 -15 5 -15 10 0 6 -4 10 -9 10 -5 0 -38 17 -72 38 -141
86 -397 198 -574 253 -74 22 -261 70 -295 75 -14 2 -47 8 -75 13 -47 8 -102
17 -185 28 -46 6 -507 13 -512 7z"/>
<path d="M3835 4484 c-55 -14 -111 -27 -125 -30 -14 -3 -48 -11 -77 -18 -28
-8 -54 -11 -57 -8 -3 3 -6 1 -6 -4 0 -5 -10 -10 -23 -11 -12 0 -103 -20 -202
-43 -99 -23 -184 -43 -190 -44 -158 -33 -248 -61 -252 -77 -3 -11 -10 -19 -16
-19 -6 0 -8 -3 -5 -6 3 -3 -18 -58 -47 -122 -29 -65 -56 -128 -60 -141 -7 -22
-5 -23 21 -16 16 4 40 9 54 11 14 3 33 7 42 10 9 3 27 7 40 10 13 3 32 7 43 9
11 3 29 7 40 9 11 2 88 20 170 40 83 19 173 40 200 46 28 7 59 14 70 16 11 3
29 7 40 9 29 7 52 12 121 29 34 8 72 17 85 19 88 16 106 26 125 69 10 24 18
46 17 50 -2 5 2 8 7 8 6 0 10 9 10 20 0 11 5 20 10 20 6 0 9 3 8 8 -1 4 9 32
22 62 14 30 24 58 22 63 -1 4 2 7 7 7 5 0 11 11 13 25 3 14 2 25 -1 24 -3 -1
-51 -12 -106 -25z"/>
<path d="M531 4363 c-1 -7 -13 -38 -27 -70 -27 -60 -39 -87 -72 -163 -11 -25
-29 -65 -40 -90 -24 -54 -87 -198 -114 -260 -10 -25 -23 -53 -28 -62 -6 -10
-10 -25 -10 -33 0 -8 -4 -15 -10 -15 -5 0 -10 -5 -10 -12 0 -6 -9 -32 -21 -57
-11 -25 -25 -55 -29 -66 -5 -11 -23 -51 -40 -90 -31 -68 -52 -115 -55 -125 -3
-8 -21 -50 -50 -114 -26 -58 -26 -60 -10 -110 9 -28 17 -58 19 -66 2 -8 6 -22
9 -30 3 -8 11 -35 18 -60 7 -25 14 -49 15 -55 2 -5 7 -26 13 -45 15 -57 60
-213 70 -245 6 -16 17 -55 25 -85 8 -30 50 -179 94 -330 44 -151 105 -367 137
-480 32 -113 68 -241 81 -285 14 -44 26 -89 29 -100 2 -11 11 -45 20 -75 28
-96 33 -113 53 -185 11 -38 25 -83 32 -100 6 -16 11 -32 11 -35 0 -3 5 -23 11
-45 6 -22 12 -47 14 -55 8 -42 170 -590 175 -590 3 0 27 53 54 117 26 65 57
138 68 163 11 25 21 47 22 50 5 16 28 69 41 94 8 16 14 33 14 38 0 4 9 27 19
51 11 23 38 87 61 142 23 55 52 123 64 150 13 28 29 68 36 90 7 22 16 42 19
45 4 3 26 55 50 115 24 61 48 114 52 119 5 6 9 16 9 23 0 7 13 40 29 73 16 33
27 60 24 60 -3 0 -1 6 5 13 5 6 21 39 35 72 14 33 39 92 57 130 17 39 35 79
40 90 5 11 25 55 44 98 20 44 36 81 36 83 0 3 16 39 35 80 19 41 35 76 35 79
0 2 13 33 29 67 15 35 59 133 96 218 37 85 96 219 131 298 35 78 64 144 64
146 0 2 15 37 34 78 19 40 73 163 121 273 48 110 98 224 111 253 13 29 24 57
24 62 0 6 4 10 8 10 4 0 9 10 9 22 1 13 7 24 13 26 5 2 10 10 10 19 0 8 6 27
14 41 8 15 47 101 86 192 40 91 80 183 90 205 29 67 31 74 12 70 -9 -2 -57
-13 -107 -25 -49 -12 -97 -23 -105 -25 -8 -2 -46 -11 -85 -20 -38 -9 -80 -19
-93 -21 -13 -3 -79 -18 -147 -34 -68 -16 -134 -31 -147 -34 -13 -2 -43 -9 -68
-16 -25 -7 -58 -14 -75 -17 -16 -2 -41 -8 -55 -13 -14 -4 -52 -14 -86 -20
l-61 -12 -26 -57 c-14 -31 -39 -85 -55 -121 -16 -36 -38 -85 -50 -110 -11 -25
-39 -88 -62 -140 -24 -52 -60 -133 -81 -178 -22 -46 -39 -86 -39 -88 0 -2 -14
-34 -31 -71 -114 -248 -138 -303 -131 -303 4 0 2 -4 -3 -8 -6 -4 -18 -22 -27
-41 l-16 -35 -13 45 c-7 24 -14 49 -15 54 -1 6 -41 145 -89 310 -48 165 -88
308 -90 318 -2 9 -7 22 -10 27 -3 5 -8 18 -10 27 -6 32 -54 197 -69 241 -8 23
-15 43 -15 45 0 1 -2 9 -4 17 -3 8 -12 42 -22 75 -9 33 -30 107 -46 165 -17
58 -32 116 -35 129 -3 14 -8 29 -12 35 -3 6 -8 18 -9 27 -4 24 -22 66 -22 52z"/>
<path d="M3628 3865 c-3 -3 -18 -8 -34 -11 -24 -4 -63 -13 -219 -50 -11 -3
-31 -7 -45 -10 -14 -3 -33 -7 -42 -10 -9 -3 -25 -6 -35 -8 -10 -3 -49 -12 -88
-21 -38 -9 -81 -19 -95 -21 -14 -3 -33 -7 -42 -10 -18 -5 -47 -12 -88 -20 -14
-3 -33 -7 -42 -10 -9 -3 -25 -6 -35 -8 -10 -3 -49 -12 -88 -21 -38 -9 -77 -18
-85 -20 -51 -11 -70 -18 -70 -26 0 -7 -83 -200 -170 -394 -9 -22 -24 -56 -33
-75 -8 -19 -31 -70 -51 -113 -20 -43 -36 -80 -36 -82 0 -3 -11 -28 -24 -57
-42 -95 -82 -188 -220 -518 -75 -179 -144 -338 -153 -355 -10 -16 -15 -30 -13
-30 3 0 -101 -254 -164 -400 -7 -16 -23 -55 -36 -86 -25 -63 -29 -37 35 -250
14 -47 28 -98 31 -114 3 -15 9 -35 13 -44 5 -9 10 -20 10 -26 3 -23 23 -92 36
-127 8 -21 13 -38 10 -38 -2 0 2 -19 11 -41 8 -23 16 -51 19 -63 3 -12 11 -43
19 -71 9 -27 24 -81 35 -120 11 -38 43 -149 71 -245 29 -96 52 -181 53 -187 1
-23 8 -14 33 44 14 32 29 67 34 78 5 11 39 92 75 180 36 88 72 174 79 190 8
17 26 59 41 95 15 36 40 93 56 128 16 34 29 64 29 67 0 2 12 30 26 62 49 111
87 197 119 273 15 36 36 83 46 105 10 22 72 166 139 320 67 153 124 284 128
290 4 5 7 15 8 20 1 6 11 31 22 55 11 25 34 76 51 114 17 38 31 75 31 82 0 8
5 14 10 14 6 0 10 6 10 13 0 13 67 170 122 287 16 36 31 70 32 75 1 6 14 36
29 69 15 32 27 60 27 62 0 2 14 33 30 69 17 36 30 67 30 70 0 2 13 32 29 67
16 35 65 146 109 248 71 165 104 242 132 305 46 104 60 136 60 140 0 2 16 38
35 79 19 42 35 78 35 81 0 7 -35 6 -42 0z"/>
</g>
</svg>
