<svg xmlns="http://www.w3.org/2000/svg" width="20.451" height="20.451" viewBox="0 0 20.451 20.451">
  <g id="svgexport-6_1_" data-name="svgexport-6 (1)" transform="translate(0.001 -0.001)">
    <g id="Group_1948" data-name="Group 1948" transform="translate(-0.001 0.001)">
      <path id="Path_6270" data-name="Path 6270" d="M182.725,156.579q-.33-.284-.663-.543l-2.584,2.584a4.194,4.194,0,0,1-5.359,5.359l-1.94,1.94a8.812,8.812,0,0,0,3.348.7,9.146,9.146,0,0,0,4.01-1,15.107,15.107,0,0,0,3.188-2.144,19.788,19.788,0,0,0,2.915-3.1.6.6,0,0,0,0-.7,19.794,19.794,0,0,0-2.915-3.1Z" transform="translate(-165.301 -149.803)" fill="#2d62ed"/>
      <path id="Path_6271" data-name="Path 6271" d="M245.825,248.821a2.993,2.993,0,0,0,2.965-3.419l-3.389,3.389A3,3,0,0,0,245.825,248.821Z" transform="translate(-235.6 -235.6)" fill="#2d62ed"/>
      <path id="Path_6272" data-name="Path 6272" d="M20.275.177a.6.6,0,0,0-.847,0L14.72,4.884q-.243-.132-.486-.251a9.146,9.146,0,0,0-4.01-1,9.146,9.146,0,0,0-4.01,1A15.106,15.106,0,0,0,3.027,6.777a19.794,19.794,0,0,0-2.915,3.1.6.6,0,0,0,0,.7,19.789,19.789,0,0,0,2.915,3.1,16.881,16.881,0,0,0,1.646,1.254l-4.5,4.5a.6.6,0,1,0,.847.847L20.275,1.024a.6.6,0,0,0,0-.847ZM6.031,10.227a4.192,4.192,0,0,1,6.7-3.358l-.86.86a2.994,2.994,0,0,0-4.149,4.149l-.86.86A4.172,4.172,0,0,1,6.031,10.227Z" transform="translate(0.001 -0.001)" fill="#2d62ed"/>
    </g>
  </g>
</svg>
