<svg id="Component_4_2" data-name="Component 4 – 2" xmlns="http://www.w3.org/2000/svg" width="356.501" height="349.713" viewBox="0 0 356.501 349.713">
  <path id="Path_88" data-name="Path 88" d="M.688-21.592H5.508L10.2-5.2l4.731-16.392h4.688L12.246,0H7.983Zm33.3,16.9A5.3,5.3,0,0,1,32.5-1.8,7.248,7.248,0,0,1,26.763.527a8.1,8.1,0,0,1-5.376-1.963Q19.058-3.4,19.058-7.822a8.877,8.877,0,0,1,2.1-6.357,7.187,7.187,0,0,1,5.457-2.212,8.368,8.368,0,0,1,3.589.747,6.287,6.287,0,0,1,2.637,2.358,8.047,8.047,0,0,1,1.216,3.3,21.285,21.285,0,0,1,.132,3.164H23.262a3.968,3.968,0,0,0,1.509,3.369,3.554,3.554,0,0,0,2.08.6,2.994,2.994,0,0,0,2.095-.732,3.479,3.479,0,0,0,.776-1.1ZM29.854-9.58a3.634,3.634,0,0,0-1-2.512,3.116,3.116,0,0,0-2.234-.857,2.835,2.835,0,0,0-2.249.908,4.533,4.533,0,0,0-1,2.461Zm14.663-3.3a2.907,2.907,0,0,0-2.915,1.8,6.189,6.189,0,0,0-.41,2.432V0h-4.16V-15.937H41.06v2.329a7.087,7.087,0,0,1,1.523-1.772,5.294,5.294,0,0,1,3.267-.967,6.163,6.163,0,0,1,4.05,1.3q1.575,1.3,1.575,4.3V0H47.2V-9.712a4.432,4.432,0,0,0-.337-1.934A2.37,2.37,0,0,0,44.517-12.876Zm25.342-8.687V0H65.8V-2.212A5.889,5.889,0,0,1,63.765-.146,5.716,5.716,0,0,1,60.923.5a5.933,5.933,0,0,1-4.709-2.263A8.691,8.691,0,0,1,54.3-7.573,10,10,0,0,1,56.184-14a6.124,6.124,0,0,1,5.032-2.344,5.15,5.15,0,0,1,2.578.637,5.071,5.071,0,0,1,1.831,1.765v-7.617ZM58.608-7.881a6.278,6.278,0,0,0,.879,3.53,2.926,2.926,0,0,0,2.637,1.333,3.082,3.082,0,0,0,2.7-1.318,5.824,5.824,0,0,0,.923-3.413q0-2.93-1.479-4.189a3.184,3.184,0,0,0-2.109-.762,2.932,2.932,0,0,0-2.688,1.384A6.413,6.413,0,0,0,58.608-7.881Zm28.359-6.064a9.317,9.317,0,0,1,2.021,5.991,9.256,9.256,0,0,1-2.021,6.013Q84.946.557,80.83.557t-6.138-2.5a9.256,9.256,0,0,1-2.021-6.013,9.317,9.317,0,0,1,2.021-5.991q2.021-2.534,6.138-2.534T86.968-13.945Zm-6.152,1a3.336,3.336,0,0,0-2.82,1.3,6,6,0,0,0-.989,3.7A6.032,6.032,0,0,0,78-4.248a3.329,3.329,0,0,0,2.82,1.3,3.309,3.309,0,0,0,2.813-1.3,6.065,6.065,0,0,0,.981-3.706,6.032,6.032,0,0,0-.981-3.7A3.316,3.316,0,0,0,80.815-12.949ZM100-12.114q-2.52,0-3.384,1.641a6.382,6.382,0,0,0-.483,2.842V0h-4.2V-15.967h3.984v2.783A8.827,8.827,0,0,1,97.6-15.366a4.586,4.586,0,0,1,3.047-.981q.117,0,.2.007t.359.022v4.277q-.4-.044-.7-.059T100-12.114Z" transform="translate(213 342.713)" fill="#fff"/>
  <g id="vip-03" transform="translate(-147.58 -177.752)">
    <path id="Path_75" data-name="Path 75" d="M312.205,275.25l-52.163,12.08-7.293,16.579,52.1-12.054Z" transform="translate(32.772 30.382)" fill="#fff"/>
    <path id="Path_76" data-name="Path 76" d="M258.7,311.587l-20.343,46.3L212.2,420.254l18.572,64.7,12.67-30.206,67.43-155.229Z" transform="translate(20.136 37.944)" fill="#fff"/>
    <path id="Path_77" data-name="Path 77" d="M275.541,289.627l-52.5,12.146-25.878,57.645-4.027-14.008-9.994-34.8-.118.039-8.63-30.062-26.809,61,18.782,65.436,4.394,15.307-.079.2,18.835,65.581L215.9,425.2l59.613-135.529Z" transform="translate(0 32.046)" fill="#fff"/>
    <path id="Path_78" data-name="Path 78" d="M352.859,178A141.654,141.654,0,0,0,204.87,295.9l57.606-13.339a89.95,89.95,0,1,1,82.3,126.78l52.045-119.776L344.78,301.6l-42.772,97.322-26.39,62.957,18.822,65.581,28.646-68.073c4.328.656,8.735,1.141,13.195,1.4a141.648,141.648,0,1,0,16.58-282.81Z" transform="translate(17.852)" fill="#fff"/>
  </g>
</svg>
